<svg width="18" height="20" viewBox="0 0 18 20" fill="none" xmlns="http://www.w3.org/2000/svg">
<path d="M8.86084 10C11.3461 10 13.3608 7.98528 13.3608 5.5C13.3608 3.01472 11.3461 1 8.86084 1C6.37556 1 4.36084 3.01472 4.36084 5.5C4.36084 7.98528 6.37556 10 8.86084 10Z" stroke="#706CFF" stroke-width="2" stroke-linecap="round" stroke-linejoin="round"/>
<path d="M13.361 11.8H13.6778C14.3358 11.8002 14.971 12.0407 15.4642 12.4762C15.9574 12.9117 16.2746 13.5124 16.3562 14.1652L16.7081 16.9768C16.7397 17.2301 16.7172 17.4873 16.6418 17.7311C16.5665 17.975 16.4402 18.2001 16.2713 18.3915C16.1023 18.5828 15.8946 18.736 15.6619 18.8409C15.4292 18.9459 15.1768 19.0001 14.9216 19H2.80039C2.54514 19.0001 2.29279 18.9459 2.06009 18.8409C1.8274 18.736 1.61968 18.5828 1.45073 18.3915C1.28178 18.2001 1.15545 17.975 1.08014 17.7311C1.00482 17.4873 0.98224 17.2301 1.01389 16.9768L1.36489 14.1652C1.44652 13.512 1.76397 12.9112 2.25754 12.4756C2.75112 12.04 3.38681 11.7998 4.04509 11.8H4.36099" stroke="#706CFF" stroke-width="2" stroke-linecap="round" stroke-linejoin="round"/>
</svg>
