<svg width="20" height="20" viewBox="0 0 20 20" fill="none" xmlns="http://www.w3.org/2000/svg">
<path d="M10 19C14.9706 19 19 14.9706 19 10C19 5.02944 14.9706 1 10 1C5.02944 1 1 5.02944 1 10C1 14.9706 5.02944 19 10 19Z" stroke="#706CFF" stroke-width="2" stroke-linecap="round" stroke-linejoin="round"/>
<path d="M6.3999 7.34513V7.25513" stroke="#706CFF" stroke-width="2" stroke-linecap="round" stroke-linejoin="round"/>
<path d="M13.6001 7.34513V7.25513" stroke="#706CFF" stroke-width="2" stroke-linecap="round" stroke-linejoin="round"/>
<path d="M9.9999 15.4C10.9547 15.4 11.8704 15.0208 12.5455 14.3456C13.2206 13.6705 13.5999 12.7548 13.5999 11.8H6.3999C6.3999 12.7548 6.77919 13.6705 7.45432 14.3456C8.12945 15.0208 9.04512 15.4 9.9999 15.4Z" stroke="#706CFF" stroke-width="2" stroke-linecap="round" stroke-linejoin="round"/>
</svg>
