<svg width="39" height="36" viewBox="0 0 39 36" fill="none" xmlns="http://www.w3.org/2000/svg">
<path d="M35.65 35.25L22.2625 23.175C21.2 23.9417 19.9781 24.5486 18.5969 24.9958C17.2156 25.4431 15.7458 25.6667 14.1875 25.6667C10.3271 25.6667 7.06025 24.4604 4.387 22.048C1.71375 19.6356 0.376417 16.689 0.375 13.2083C0.375 9.72639 1.71233 6.77983 4.387 4.36867C7.06167 1.9575 10.3285 0.751278 14.1875 0.75C18.0479 0.75 21.3148 1.95622 23.988 4.36867C26.6613 6.78111 27.9986 9.72767 28 13.2083C28 14.6139 27.7521 15.9396 27.2562 17.1854C26.7604 18.4312 26.0875 19.5333 25.2375 20.4917L38.625 32.5667L35.65 35.25ZM14.1875 21.8333C16.8438 21.8333 19.1019 20.9945 20.962 19.3167C22.8221 17.639 23.7514 15.6029 23.75 13.2083C23.75 10.8125 22.82 8.77572 20.9599 7.098C19.0998 5.42028 16.8423 4.58206 14.1875 4.58333C11.5312 4.58333 9.27308 5.42219 7.413 7.09992C5.55292 8.77764 4.62358 10.8138 4.625 13.2083C4.625 15.6042 5.55504 17.6409 7.41513 19.3187C9.27521 20.9964 11.5327 21.8346 14.1875 21.8333Z" fill="white"/>
</svg>
